<svg xmlns="http://www.w3.org/2000/svg" xmlns:xlink="http://www.w3.org/1999/xlink" width="168" height="31.96" viewBox="0 0 168 31.96">
  <defs>
    <clipPath id="clip-path">
      <rect id="Rectangle_24" data-name="Rectangle 24" width="168" height="31.96" fill="#fff"/>
    </clipPath>
  </defs>
  <g id="Group_315" data-name="Group 315" transform="translate(0 -65.127)">
    <g id="Group_39" data-name="Group 39" transform="translate(0 65.127)" clip-path="url(#clip-path)">
      <path id="Path_61" data-name="Path 61" d="M18.481.377v.89L3.965,30.868H11.1a7.355,7.355,0,0,0,2.783-.445,3.716,3.716,0,0,0,1.71-1.4,7.242,7.242,0,0,0,.964-2.56,32.806,32.806,0,0,0,.509-3.917H17.9q-.109,1.381-.109,3.65,0,.846.055,2.427t.2,3.271Q16.7,31.8,15.1,31.781t-3.183-.022H8.986q-2.147,0-4.53.022T0,31.892V31L14.624,1.4H7.53a7.351,7.351,0,0,0-2.783.445,3.714,3.714,0,0,0-1.71,1.4,7.241,7.241,0,0,0-.965,2.56,32.844,32.844,0,0,0-.509,3.917H.727Q.8,9.014.818,8.077t.019-2q0-.845-.054-2.426T.582.377Q1.927.421,3.529.466t3.2.045H9.641q2.074,0,4.456-.022T18.481.377" transform="translate(0 -0.154)" fill="#fff"/>
      <path id="Path_62" data-name="Path 62" d="M110.807.377v.89a5.174,5.174,0,0,0-1.874.334,1.558,1.558,0,0,0-.855,1.068A9.777,9.777,0,0,0,107.86,5.1V27.174a9.814,9.814,0,0,0,.218,2.4,1.5,1.5,0,0,0,.855,1.069,6.233,6.233,0,0,0,1.874.356v.89q-.837-.089-2.092-.111t-2.528-.022q-1.419,0-2.656.022t-2,.111V31a6.236,6.236,0,0,0,1.874-.356,1.5,1.5,0,0,0,.855-1.069,9.867,9.867,0,0,0,.218-2.4V5.1a9.829,9.829,0,0,0-.218-2.426A1.56,1.56,0,0,0,103.4,1.6a5.176,5.176,0,0,0-1.874-.334V.377q.764.044,2,.089t2.656.045q1.273,0,2.528-.045t2.092-.089" transform="translate(-53 -0.154)" fill="#fff"/>
      <path id="Path_63" data-name="Path 63" d="M212.283.377v.89a5.172,5.172,0,0,0-1.874.334,1.555,1.555,0,0,0-.855,1.068,9.774,9.774,0,0,0-.218,2.426V27.174a9.811,9.811,0,0,0,.218,2.4,1.5,1.5,0,0,0,.855,1.069,6.23,6.23,0,0,0,1.874.356v.89q-.837-.089-2.092-.111t-2.529-.022q-1.418,0-2.655.022t-2,.111V31a6.24,6.24,0,0,0,1.874-.356,1.5,1.5,0,0,0,.855-1.069,9.841,9.841,0,0,0,.218-2.4V2.692l.146.133-8.913,29.289H196.6L187.435,3.226v23.5a10.484,10.484,0,0,0,.236,2.515,1.919,1.919,0,0,0,.946,1.291,5.4,5.4,0,0,0,2.128.467v.89a15.689,15.689,0,0,0-1.71-.111q-1.055-.022-2-.022-.91,0-1.837.022a13.425,13.425,0,0,0-1.546.111V31a4.356,4.356,0,0,0,1.873-.467,1.935,1.935,0,0,0,.855-1.291,11.341,11.341,0,0,0,.218-2.515V5.1a9.8,9.8,0,0,0-.218-2.426,1.558,1.558,0,0,0-.855-1.068,5.175,5.175,0,0,0-1.873-.334V.377q.618.044,1.546.089t1.837.045q.8,0,1.655-.045t1.437-.089L198.386,27l-.619.356L205.952.511h1.71q1.274,0,2.529-.045t2.092-.089" transform="translate(-95.868 -0.154)" fill="#fff"/>
      <path id="Path_64" data-name="Path 64" d="M314.539,0l8.876,28a4.805,4.805,0,0,0,1.237,2.248,2.394,2.394,0,0,0,1.273.6v.89q-.728-.088-1.782-.111t-2.11-.022q-1.419,0-2.656.022t-2,.111v-.89q1.856-.089,2.365-.778t-.218-2.961L312.755,4.985l.582-.579-6.33,20.12a14,14,0,0,0-.692,3,4.051,4.051,0,0,0,.2,1.936,1.9,1.9,0,0,0,1.055,1.024,5.435,5.435,0,0,0,1.873.356v.89q-1.018-.088-2.128-.111t-2.055-.022q-.91,0-1.546.022a9.642,9.642,0,0,0-1.183.111v-.89a3.531,3.531,0,0,0,1.491-1.046,7.524,7.524,0,0,0,1.383-2.826L313.956,0h.582Zm4.438,18.918v.89H308.135l.364-.89Z" transform="translate(-157.925)" fill="#fff"/>
    </g>
  </g>
</svg>
