<svg xmlns="http://www.w3.org/2000/svg" xmlns:xlink="http://www.w3.org/1999/xlink" width="83.101" height="17.257" viewBox="0 0 83.101 17.257">
  <defs>
    <clipPath id="clip-path">
      <rect id="Rectangle_24" data-name="Rectangle 24" width="83.101" height="17.257" fill="#fff"/>
    </clipPath>
  </defs>
  <g id="Group_359" data-name="Group 359" transform="translate(0 -65.127)">
    <g id="Group_39" data-name="Group 39" transform="translate(0 65.127)" clip-path="url(#clip-path)">
      <path id="Path_61" data-name="Path 61" d="M9.141.377v.48L1.961,16.841H5.488a3.364,3.364,0,0,0,1.377-.24,1.883,1.883,0,0,0,.846-.757,4.132,4.132,0,0,0,.477-1.382,19.254,19.254,0,0,0,.252-2.115h.414q-.054.746-.054,1.971,0,.457.027,1.31t.1,1.766q-.666-.048-1.458-.06t-1.575-.012H4.445q-1.062,0-2.241.012t-2.2.06v-.481L7.234.93H3.725a3.362,3.362,0,0,0-1.377.24,1.882,1.882,0,0,0-.846.757,4.132,4.132,0,0,0-.477,1.382A19.277,19.277,0,0,0,.774,5.424H.36Q.4,5.04.4,4.535T.414,3.453q0-.456-.027-1.31T.288.377Q.953.4,1.745.425T3.329.449h1.44q1.026,0,2.2-.012T9.141.377" transform="translate(0 -0.256)" fill="#fff"/>
      <path id="Path_62" data-name="Path 62" d="M106.119.377v.48a2.371,2.371,0,0,0-.927.181.83.83,0,0,0-.423.577,5.746,5.746,0,0,0-.108,1.31V14.846a5.768,5.768,0,0,0,.108,1.3.8.8,0,0,0,.423.577,2.858,2.858,0,0,0,.927.192v.481q-.414-.048-1.035-.06t-1.251-.012q-.7,0-1.314.012a9.688,9.688,0,0,0-.99.06v-.481a2.86,2.86,0,0,0,.927-.192.8.8,0,0,0,.423-.577,5.8,5.8,0,0,0,.108-1.3V2.925a5.777,5.777,0,0,0-.108-1.31.831.831,0,0,0-.423-.577,2.372,2.372,0,0,0-.927-.181V.377q.378.024.99.048t1.314.024q.63,0,1.251-.024t1.035-.048" transform="translate(-77.524 -0.256)" fill="#fff"/>
      <path id="Path_63" data-name="Path 63" d="M197.814.377v.48a2.37,2.37,0,0,0-.927.181.828.828,0,0,0-.423.577,5.745,5.745,0,0,0-.108,1.31V14.846a5.767,5.767,0,0,0,.108,1.3.8.8,0,0,0,.423.577,2.856,2.856,0,0,0,.927.192v.481q-.414-.048-1.035-.06t-1.251-.012q-.7,0-1.313.012a9.7,9.7,0,0,0-.99.06v-.481a2.861,2.861,0,0,0,.927-.192.8.8,0,0,0,.423-.577,5.783,5.783,0,0,0,.108-1.3V1.627l.072.072-4.409,15.815h-.288l-4.535-15.6V14.606a6.162,6.162,0,0,0,.117,1.358,1.032,1.032,0,0,0,.468.7,2.485,2.485,0,0,0,1.053.252v.481a7.12,7.12,0,0,0-.846-.06q-.522-.012-.99-.012-.45,0-.909.012a6.093,6.093,0,0,0-.765.06v-.481a2.014,2.014,0,0,0,.927-.252,1.052,1.052,0,0,0,.423-.7,6.668,6.668,0,0,0,.108-1.358V2.925A5.759,5.759,0,0,0,185,1.615a.83.83,0,0,0-.423-.577,2.371,2.371,0,0,0-.927-.181V.377q.306.024.765.048t.909.024q.4,0,.819-.024t.711-.048L190.94,14.75l-.306.192L194.683.449h.846q.63,0,1.251-.024t1.035-.048" transform="translate(-140.23 -0.256)" fill="#fff"/>
      <path id="Path_64" data-name="Path 64" d="M308.472,0l4.391,15.118a2.661,2.661,0,0,0,.612,1.214,1.142,1.142,0,0,0,.63.324v.481a8.436,8.436,0,0,0-.882-.06q-.522-.012-1.044-.012-.7,0-1.314.012a9.872,9.872,0,0,0-.99.06v-.481q.918-.048,1.17-.42t-.108-1.6L307.589,2.692l.288-.313-3.131,10.864a8.156,8.156,0,0,0-.342,1.622,2.374,2.374,0,0,0,.1,1.046.982.982,0,0,0,.522.553,2.492,2.492,0,0,0,.927.192v.481q-.5-.047-1.053-.06t-1.017-.012q-.45,0-.765.012a4.38,4.38,0,0,0-.585.06v-.481a1.752,1.752,0,0,0,.738-.565,4.216,4.216,0,0,0,.684-1.526L308.184,0h.288Zm2.2,10.215V10.7H305.3l.18-.481Z" transform="translate(-231.003)" fill="#fff"/>
    </g>
  </g>
</svg>
