<svg xmlns="http://www.w3.org/2000/svg" width="15.555" height="20.721" viewBox="0 0 15.555 20.721">
  <g id="maps-pin-black-icon" transform="translate(291 -289.999)">
    <path id="Path_89" data-name="Path 89" d="M11.553,17.921A14.948,14.948,0,0,1,8.28,20.629a.462.462,0,0,1-.526.017A18.465,18.465,0,0,1,3.2,16.583,14.461,14.461,0,0,1,.14,9.973a8.775,8.775,0,0,1,1.1-6.184A7.612,7.612,0,0,1,2.933,1.911,8.254,8.254,0,0,1,8.121,0a7.307,7.307,0,0,1,4.924,2.01,7.258,7.258,0,0,1,1.314,1.6,9.8,9.8,0,0,1,.936,7.086,15.59,15.59,0,0,1-3.742,7.221v.005ZM7.777,4.006a3.87,3.87,0,1,1-3.87,3.87,3.87,3.87,0,0,1,3.87-3.87Z" transform="translate(-291 290)" fill="#3d5e43" fill-rule="evenodd"/>
  </g>
</svg>
