<svg xmlns="http://www.w3.org/2000/svg" width="18.094" height="18.095" viewBox="0 0 18.094 18.095">
  <path id="Icon_akar-phone" data-name="Icon akar-phone" d="M10.739,6.835,7.678,3.3a.963.963,0,0,0-1.41.005L3.752,5.829a2.433,2.433,0,0,0-.53,2.757A26.424,26.424,0,0,0,15.49,20.872a2.427,2.427,0,0,0,2.754-.531l2.54-2.545a.965.965,0,0,0,0-1.415L17.24,13.337a.975.975,0,0,0-1.319.1l-1.234,1.236a.418.418,0,0,1-.5.08A13.17,13.17,0,0,1,9.337,9.892a.419.419,0,0,1,.08-.5l1.23-1.231a.978.978,0,0,0,.091-1.325Z" transform="translate(-3 -2.999)" fill="#3d5e43"/>
</svg>
